# xmcd CD database file generated by Grip 3.2.0
# 
# Track frame offsets:
#       182
#       10745
#       20720
#       31895
#       63955
#       75560
#       99300
#       108687
#       125535
#       139760
#       153467
#       176595
# 
# Disc length: 2547 seconds
# 
# Revision: 2
# Processed by: cddbd v1.5.1PL0 Copyright (c) Steve Scherf et al.
# Submitted via: Grip 3.2.0
# 
DISCID=9409f10c
DTITLE=Lightnin' Hopkins - Nothin' But The Blues
DYEAR=1991
DGENRE=Blues
TTITLE0=Nothin' But The Blues (Ida Mae)
TTITLE1=Sick Feelin' Blues
TTITLE2=Blues For My Cookie
TTITLE3=Big Black Cadillac Blues
TTITLE4=Lightnin's Boogie
TTITLE5=Early In The Mornin' Blues
TTITLE6=Coffee House Blues
TTITLE7=Fugitive Blues
TTITLE8="G" String Blues
TTITLE9=Stool Pigeon Blues
TTITLE10=Drinkin' In The Blues
TTITLE11=Santa Fe Blues
EXTD=
EXTT0=
EXTT1=
EXTT2=
EXTT3=
EXTT4=
EXTT5=
EXTT6=
EXTT7=
EXTT8=
EXTT9=
EXTT10=
EXTT11=
PLAYORDER=
